<?xml version="1.0" standalone="no"?><!DOCTYPE svg PUBLIC "-//W3C//DTD SVG 1.1//EN" "http://www.w3.org/Graphics/SVG/1.1/DTD/svg11.dtd"><svg class="icon" width="200px" height="200.00px" viewBox="0 0 1024 1024" version="1.1" xmlns="http://www.w3.org/2000/svg"><path fill="#515151" d="M788.945455 209.454545H235.054545C169.890909 209.454545 116.363636 262.981818 116.363636 328.145455v102.4c46.545455 0 81.454545 37.236364 81.454546 81.454545S162.909091 593.454545 116.363636 593.454545v102.4c0 65.163636 53.527273 118.690909 118.690909 118.69091H791.272727c65.163636 0 118.690909-53.527273 118.690909-118.69091V328.145455C907.636364 262.981818 854.109091 209.454545 788.945455 209.454545z m-83.781819 470.109091c0 27.927273-23.272727 51.2-51.2 51.2-27.927273 0-51.2-23.272727-51.2-51.2V344.436364c0-27.927273 23.272727-51.2 51.2-51.2 27.927273 0 51.2 23.272727 51.2 51.2v335.127272z"  /></svg>