<?xml version="1.0" standalone="no"?><!DOCTYPE svg PUBLIC "-//W3C//DTD SVG 1.1//EN" "http://www.w3.org/Graphics/SVG/1.1/DTD/svg11.dtd"><svg t="1533289694138" class="icon" style="" viewBox="0 0 1024 1024" version="1.1" xmlns="http://www.w3.org/2000/svg" p-id="1096" xmlns:xlink="http://www.w3.org/1999/xlink" width="200" height="200"><defs><style type="text/css"></style></defs><path d="M192 96h179.2c51.2 0 96 44.8 96 96v179.2c0 51.2-44.8 96-96 96H192c-51.2 0-96-44.8-96-96V192c0-57.6 38.4-96 96-96z m0 64c-19.2 0-32 12.8-32 32v179.2c0 12.8 12.8 32 32 32h179.2c12.8 0 32-19.2 32-32V192c0-19.2-12.8-32-32-32H192zM192 556.8h179.2c51.2 0 96 44.8 96 96V832c0 51.2-44.8 96-96 96H192c-51.2 0-96-44.8-96-96v-179.2c0-51.2 38.4-96 96-96z m0 64c-19.2 0-32 12.8-32 32V832c0 19.2 12.8 32 32 32h179.2c19.2 0 32-12.8 32-32v-179.2c0-19.2-12.8-32-32-32H192zM588.8 556.8H896c19.2 0 32 12.8 32 32s-12.8 32-32 32h-307.2c-19.2 0-32-12.8-32-32s12.8-32 32-32zM556.8 896v-166.4c0-19.2 12.8-32 32-32s32 12.8 32 32V896c0 19.2-12.8 32-32 32s-32-12.8-32-32zM697.6 832v-96c0-19.2 12.8-32 32-32s32 12.8 32 32v96c0 19.2-12.8 32-32 32s-32-19.2-32-32zM838.4 864v-134.4c0-19.2 12.8-32 32-32s32 12.8 32 32V864c0 19.2-12.8 32-32 32s-32-12.8-32-32zM652.8 160c-19.2 0-32 12.8-32 32v179.2c0 19.2 12.8 32 32 32H832c19.2 0 32-12.8 32-32V192c0-19.2-12.8-32-32-32h-179.2z m0-64H832c51.2 0 96 44.8 96 96v179.2c0 51.2-44.8 96-96 96h-179.2c-51.2 0-96-44.8-96-96V192c0-57.6 44.8-96 96-96z" fill="#ffffff" p-id="1097"></path></svg>