<?xml version="1.0" standalone="no"?><!DOCTYPE svg PUBLIC "-//W3C//DTD SVG 1.1//EN" "http://www.w3.org/Graphics/SVG/1.1/DTD/svg11.dtd"><svg class="icon" width="200px" height="200.00px" viewBox="0 0 1024 1024" version="1.1" xmlns="http://www.w3.org/2000/svg"><path fill="#515151" d="M512 93.090909C281.6 93.090909 93.090909 281.6 93.090909 512s188.509091 418.909091 418.909091 418.909091 418.909091-188.509091 418.909091-418.909091S742.4 93.090909 512 93.090909z m0 728.436364c-172.218182 0-309.527273-139.636364-309.527273-309.527273S339.781818 202.472727 512 202.472727s309.527273 139.636364 309.527273 309.527273S684.218182 821.527273 512 821.527273z"  /><path fill="#515151" d="M512 293.236364c-121.018182 0-218.763636 97.745455-218.763636 218.763636s97.745455 218.763636 218.763636 218.763636 218.763636-97.745455 218.763636-218.763636-97.745455-218.763636-218.763636-218.763636zM458.472727 512c-37.236364 0-69.818182-30.254545-69.818182-69.818182 0-37.236364 30.254545-69.818182 69.818182-69.818182 37.236364 0 69.818182 30.254545 69.818182 69.818182-2.327273 39.563636-32.581818 69.818182-69.818182 69.818182z"  /></svg>