<?xml version="1.0" standalone="no"?><!DOCTYPE svg PUBLIC "-//W3C//DTD SVG 1.1//EN" "http://www.w3.org/Graphics/SVG/1.1/DTD/svg11.dtd"><svg class="icon" width="200px" height="200.00px" viewBox="0 0 1024 1024" version="1.1" xmlns="http://www.w3.org/2000/svg"><path fill="#515151" d="M761.29145 357.445322c24.167983 0 43.261549 19.093566 43.261548 43.261548v362.691753c0 24.167983-19.093566 43.261549-43.261548 43.261548h-498.840921c-24.167983 0-43.261549-19.093566-43.261549-43.261548V400.70687c0-24.167983 19.093566-43.261549 43.261549-43.261548h498.840921z m0-38.187133h-498.840921c-44.551655 0-81.448681 36.897027-81.448681 81.448681v362.691753c0 44.551655 36.897027 81.448681 81.448681 81.448681h497.636822c44.551655 0 81.448681-36.897027 81.448681-81.448681V400.70687c1.204099-44.551655-35.692928-81.448681-80.244582-81.448681M636.58122 955.538384h-249.420461c-10.148833 0-19.093566-8.944734-19.093566-19.093566 0-10.148833 8.944734-19.093566 19.093566-19.093567h249.420461c10.148833 0 19.093566 8.944734 19.093566 19.093567-0.086007 10.23484-8.944734 19.093566-19.093566 19.093566z"  /><path fill="#515151" d="M289.972787 499.012935h28.984377v147.502099h86.17907v23.995969h-115.163447V499.012935zM428.358139 499.012935h27.350243v30.704518h-27.350243V499.012935z m0 44.723668h27.350243v126.7744h-27.350243V543.736603zM569.237695 543.736603h29.844448l-52.206282 126.7744h-24.856039L473.941878 543.736603h29.844448c13.245087 41.455401 22.619856 70.439778 28.210314 87.03914 1.634134 4.988409 2.494205 9.374769 2.494205 13.245087h0.860071c0-0.516042 0.258021-1.634134 0.86007-3.354275 1.118092-4.38636 1.892155-7.740635 2.494205-9.976819 5.332437-16.513355 15.567277-45.497732 30.532504-86.953133zM703.494709 628.281539l28.210314 7.482614c-7.740635 25.974131-27.350244 38.703175-58.828826 38.101125-40.337309-1.634134-61.32303-23.221905-62.957165-64.677306 1.634134-43.089535 22.361834-65.70939 62.183101-67.945573 39.219217 1.118092 59.344868 23.995968 60.46296 68.805644v7.482614h-93.661683c2.752226 21.587771 13.761129 32.854695 33.112716 33.972787 17.029397 0.516042 27.608265-7.224593 31.478583-23.221905z m-31.56459-62.183101c-18.233496 1.634134-28.726356 11.09491-31.478582 28.210314h62.183101c-2.236183-18.233496-12.471023-27.608265-30.704519-28.210314z"  /></svg>