<?xml version="1.0" standalone="no"?><!DOCTYPE svg PUBLIC "-//W3C//DTD SVG 1.1//EN" "http://www.w3.org/Graphics/SVG/1.1/DTD/svg11.dtd"><svg t="1533374714766" class="icon" style="" viewBox="0 0 1024 1024" version="1.1" xmlns="http://www.w3.org/2000/svg" p-id="3532" xmlns:xlink="http://www.w3.org/1999/xlink" width="200" height="200"><defs><style type="text/css"></style></defs><path d="M542.967633 798.258692c0 8.424208-6.379567 18.968917-10.766875 22.958855-52.62601-42.00544-189.880627-165.12639-191.289478-166.397968-0.005419 0-0.019868-0.025287-0.025287-0.025287a20.813067 20.813067 0 0 0-15.318547-6.681206H195.938687c-11.503812 0-20.865447-9.321899-20.865447-20.739012V403.597933c0-11.4424 9.361635-20.740818 20.865447-20.740818h145.413311c4.201266 0 8.108119-1.246291 11.386407-3.379437a20.722756 20.722756 0 0 0 10.046193-4.847893c1.246291-1.096375 123.12095-108.463479 169.36378-144.484913 4.360214 3.881566 10.817448 14.476849 10.817448 22.971499V798.258692h0.001807z" fill="#0fefea" p-id="3533"></path><path d="M543.608841 200.553578c-13.058967-6.377761-26.992144-5.106182-38.226829 3.511291-41.012019 31.455312-148.948082 126.222228-167.095169 142.191014h-137.827188c-33.584845 0-60.903914 27.163734-60.903914 60.535446V624.500379c0 33.371711 27.319069 60.533639 60.903914 60.533639h118.15204c24.344226 21.779394 140.950142 125.967552 186.575245 161.886032 6.536708 5.142307 14.025294 7.761325 21.737851 7.761325 5.431302 0 10.96014-1.286028 16.369767-3.879759 19.523426-9.385116 35.396483-36.330298 35.396483-60.049573v-530.36022c0-23.544071-15.739396-50.384492-35.0822-59.838245z m-5.530644 590.196659c0 8.19843-6.207976 18.45595-10.476073 22.33571-51.204516-40.865715-184.731096-160.646965-186.102016-161.884225-0.005419 0-0.018062-0.025287-0.025287-0.025288a20.236883 20.236883 0 0 0-14.901311-6.500583h-126.113855c-11.193142 0-20.300101-9.069028-20.300101-20.177278V406.791329c0-11.131731 9.106959-20.177278 20.300101-20.177278h141.470333c4.087475 0 7.88776-1.211973 11.077544-3.285513a20.142959 20.142959 0 0 0 9.768035-4.717845c1.211973-1.067476 119.783056-105.521147 164.777789-140.567224 4.244616 3.778611 10.524841 14.084899 10.524841 22.35016v530.356608z m217.92399-263.186044c-5.227199-79.961336-65.106987-131.418722-67.653756-133.566317-8.536193-7.214041-21.340483-6.182689-28.617741 2.304736a20.079742 20.079742 0 0 0 2.328217 28.429895c0.485873 0.437105 49.306179 42.370296 53.427971 105.448898 2.740035 41.90971-15.060258 84.205951-52.918617 125.702037-7.531935 8.245392-6.912402 21.00272 1.405238 28.496725a20.318163 20.318163 0 0 0 13.629732 5.238036 20.301907 20.301907 0 0 0 15.036777-6.646887c45.522149-49.885975 66.839151-102.197703 63.362179-155.407123z m109.594172-97.449152c-31.189798-87.229563-89.747433-139.967559-92.220147-142.167534-8.368215-7.427174-21.195985-6.71733-28.666509 1.594892a20.079742 20.079742 0 0 0 1.600311 28.48408c0.534641 0.473229 53.270831 47.958739 81.027005 125.597277 16.153021 45.206061 20.554777 91.504884 13.07161 137.608636-9.444722 58.326439-38.064269 116.945485-85.040425 174.182774-7.09483 8.633729-5.783515 21.342289 2.897176 28.400995a20.312744 20.312744 0 0 0 12.81874 4.533611c5.893694 0 11.736814-2.544963 15.75204-7.418144 51.547697-62.814894 83.064421-127.835182 93.663316-193.269095 8.574124-52.896943 3.567283-105.889616-14.903117-157.547492z" fill="#0fefea" p-id="3534"></path></svg>