<?xml version="1.0" standalone="no"?><!DOCTYPE svg PUBLIC "-//W3C//DTD SVG 1.1//EN" "http://www.w3.org/Graphics/SVG/1.1/DTD/svg11.dtd"><svg class="icon" width="200px" height="200.00px" viewBox="0 0 1024 1024" version="1.1" xmlns="http://www.w3.org/2000/svg"><path d="M679.6 489.1H344.3l-41.9 427c-2.1 23.4 16.4 43.7 39.9 43.7h339.3c23.5 0 42-20.2 39.9-43.7l-41.9-427zM679.6 231.8c0-10.6-4.2-20.8-11.7-28.3L540.3 76c-15.6-15.6-41-15.6-56.7 0L356.1 203.5c-7.5 7.5-11.7 17.7-11.7 28.3v29.3h335.2v-29.3z" fill="#23ADE5" /><path d="M344.3 397.3h335.2v91.8H344.3z" fill="#FF5C7A" /><path d="M344.3 261.2h335.2v156.1H344.3z" fill="#FFB161" /><path d="M537.8 729.2H486c-11.1 0-20 9-20 20v57.6c0 11.1 9 20 20 20h51.8c11.1 0 20-9 20-20v-57.6c0.1-11-8.9-20-20-20zM537.8 558H486c-11.1 0-20 9-20 20v57.6c0 11.1 9 20 20 20h51.8c11.1 0 20-9 20-20V578c0.1-11-8.9-20-20-20zM913.8 206.4l-234.3 55v155.8l234.3 55c12.6 3 24.6-6.6 24.6-19.5V225.9c0-12.9-12-22.4-24.6-19.5zM85.6 225.3v226.9c0 12.9 12 22.5 24.6 19.5l234.3-55V260.9l-234.3-55c-12.6-3-24.6 6.5-24.6 19.4z" fill="#FDDE80" /></svg>