<?xml version="1.0" standalone="no"?><!DOCTYPE svg PUBLIC "-//W3C//DTD SVG 1.1//EN" "http://www.w3.org/Graphics/SVG/1.1/DTD/svg11.dtd"><svg class="icon" width="200px" height="200.00px" viewBox="0 0 1024 1024" version="1.1" xmlns="http://www.w3.org/2000/svg"><path fill="#515151" d="M641.335159 803.375184c122.067126-49.951669 204.342991-166.906357 204.342991-299.401998 0-179.154309-149.499919-324.616262-334.305948-324.616262-184.446849 0-334.327438 145.43944-334.327438 324.57226 0 39.97034 7.513114 79.223343 21.801538 115.470895 3.405563 9.140171-1.091868 19.329231-10.138918 22.968107-9.19236 3.38612-19.427468-1.006933-23.304775-10.004864-0.73985-1.836835-1.502213-4.059456-2.242064-5.919827h-4.128017c-52.599985 0.023536-95.061053-41.429575-95.061053-92.502787 0.35918-47.015803 36.427654-85.8646 82.994226-91.785449C177.022251 272.646634 328.78777 143.849222 511.351736 143.849222c182.539406 0 334.303902 128.797411 364.361474 298.305013 46.564525 5.92085 82.634022 44.769646 82.634023 91.78545 0 51.073212-42.462091 92.527346-95.039564 92.527346h-4.12597c-34.94693 93.646843-108.945271 170.628122-205.106378 209.477942-0.73985 24.045649-21.398356 43.672662-46.206368 43.672662-25.52535 0-46.565549-20.346397-46.565549-45.153386 0-24.783453 20.658506-45.153386 46.565549-45.153386 13.166881 0 25.167193 5.564739 33.42118 14.064321h0.045026zM511.373225 215.650525c-163.40665 0-296.375058 129.154545-296.375058 288.299125 0 159.167093 132.586714 288.320615 296.375058 288.320615 163.384138 0 296.376081-129.154545 296.376081-288.320615 0-159.14458-132.609227-288.299125-296.376081-288.299125z m184.424336 347.157651c-25.907043 76.980255-99.906407 129.917932-184.065156 129.917932-84.518952 0-158.517293-52.937676-184.044689-129.917932-5.270027-15.926738 13.145391-29.609365 27.02961-19.986193 1.502213 1.12359 4.889357 2.960425 9.779737 5.921873 8.635681 4.822842 19.156292 9.623171 30.797423 14.06432 34.184567 12.96529 72.877821 20.36584 116.437919 20.36584 43.200918 0 82.273818-7.782244 116.459409-20.36584 11.641131-4.441149 22.160719-9.241478 30.797423-14.06432 5.248537-2.602268 8.255011-4.822842 9.758248-5.921873 13.904685-9.622148 32.298614 3.699252 27.050076 19.986193z" /></svg>