<?xml version="1.0" standalone="no"?><!DOCTYPE svg PUBLIC "-//W3C//DTD SVG 1.1//EN" "http://www.w3.org/Graphics/SVG/1.1/DTD/svg11.dtd"><svg t="1533176870547" class="icon" style="" viewBox="0 0 1024 1024" version="1.1" xmlns="http://www.w3.org/2000/svg" p-id="11108" xmlns:xlink="http://www.w3.org/1999/xlink" width="200" height="200"><defs><style type="text/css"></style></defs><path d="M900.48 383.872c-2.496-35.2-33.216-63.872-68.608-63.872H764.48C744.128 138.368 638.848 0 512 0S279.872 138.368 259.52 320h-67.328c-35.008 0-66.176 28.608-68.672 63.872L74.112 960.064C71.616 995.328 102.72 1024 143.552 1024h736.96c40.32 0 71.936-28.608 69.44-63.872L900.48 383.872zM512 64c92.864 0 170.368 109.952 188.16 256H323.84C341.632 173.952 419.136 64 512 64zM320 512c-35.328 0-64-28.672-64-64s28.672-64 64-64 64 28.672 64 64-28.672 64-64 64z m384 0c-35.328 0-64-28.672-64-64s28.672-64 64-64 64 28.672 64 64-28.672 64-64 64z" fill="#ffffff" p-id="11109"></path></svg>