<?xml version="1.0" standalone="no"?><!DOCTYPE svg PUBLIC "-//W3C//DTD SVG 1.1//EN" "http://www.w3.org/Graphics/SVG/1.1/DTD/svg11.dtd"><svg t="1533374543118" class="icon" style="" viewBox="0 0 1024 1024" version="1.1" xmlns="http://www.w3.org/2000/svg" p-id="10192" xmlns:xlink="http://www.w3.org/1999/xlink" width="200" height="200"><defs><style type="text/css"></style></defs><path d="M512 63.14C264.1 63.14 63.14 264.1 63.14 512S264.1 960.86 512 960.86 960.86 759.9 960.86 512 759.9 63.14 512 63.14z m248.3 583.69c-9 18.65-24.67 37.85-46.51 57.05s-48 34.53-77.95 45.65-66.5 16.74-108.5 16.74c-38.77 0-74.94-5-107.52-15-32.83-10-61.28-25.28-84.58-45.43s-40.94-43.6-52.86-69.84c-14.69-33.33-22.14-69.62-22.14-107.88a296.43 296.43 0 0 1 26.34-122.56C308 357.91 338.83 321 378.15 295.87s87.73-38.14 143.72-38.14c43.39 0 83 9 117.71 26.85 34.95 18 62.78 45 82.74 80.38a201.86 201.86 0 0 1 25.73 99.84 196.5 196.5 0 0 1-13.57 72.75c-9 22.67-22.65 44.22-40.6 64.05-32.31 35.79-68.24 53.93-106.79 53.93-12.84 0-23-2-31.09-6a39.76 39.76 0 0 1-18.47-17.73v-0.05a50.05 50.05 0 0 1-3.88-13.25A143.4 143.4 0 0 1 502 642.83c-14.58 8.23-29.48 12.4-44.28 12.4-16.21 0-32.17-4.77-47.44-14.19s-27.75-24-37.23-43.5c-9.39-19.29-14.15-40.67-14.15-63.53 0-28.09 7.29-56.6 21.66-84.73s32.53-49.62 54.18-63.95 43-21.55 63.61-21.55a90.15 90.15 0 0 1 45.52 12.42c11.34 6.54 21.52 15.84 30.36 27.72l6.28-28.74 0.86-3.93H638l-1.3 6.05-37.34 173.79c-6.6 30.85-7.63 37.74-7.66 39.09a11.21 11.21 0 0 0 3.73 8.44 13 13 0 0 0 9.39 3.69c8 0 19.16-5 33.18-14.93 18.84-13.22 34-31.29 45.2-53.69s16.71-45.92 16.71-69.69a152.76 152.76 0 0 0-21.42-78.33c-14.26-24.19-35.79-43.75-64-58.14-28.36-14.57-60.23-22-94.72-22-39.31 0-75.74 9.33-108.28 27.74s-57.94 45-75.72 79.34A236.32 236.32 0 0 0 308.57 524c0 41.26 9 77.18 26.87 106.77s43.85 51.65 77.43 65.69c33.9 14.28 72.15 21.52 113.68 21.52 44.32 0 81.84-7.5 111.5-22.28s52.25-33 66.74-53.85l1.49-2.15h57.49z" fill="#f4ea2a" p-id="10193"></path><path d="M501.75 412.33a55.6 55.6 0 0 0-28.69 7.81C464 425.32 455 434 446.22 445.85s-16 26.74-21.27 43.85-8.14 33.1-8.14 47.4c0 22.65 5.11 39.64 15.63 51.92 10.35 12.09 21.75 18 34.84 18 8.75 0 18.24-2.71 28.21-8.07 10.23-5.49 19.79-13.55 29.25-24.65 9.22-10.72 17-24.8 23.08-41.82a153.53 153.53 0 0 0 9.08-51c0-22.08-5.47-39.35-16.24-51.33s-23.49-17.82-38.91-17.82z" fill="#f4ea2a" p-id="10194"></path></svg>